<svg width="1440" height="1113" viewBox="0 0 1440 1113" fill="none" xmlns="http://www.w3.org/2000/svg">
<path d="M-236 1100L1676 1100" stroke="black" stroke-opacity="0.06"/>
<path d="M-236 1045L1676 1045" stroke="black" stroke-opacity="0.06"/>
<path d="M-236 990L1676 990" stroke="black" stroke-opacity="0.06"/>
<path d="M-236 935L1676 935" stroke="black" stroke-opacity="0.06"/>
<path d="M-236 880L1676 880" stroke="black" stroke-opacity="0.06"/>
<path d="M-236 825L1676 825" stroke="black" stroke-opacity="0.06"/>
<path d="M-236 770L1676 770" stroke="black" stroke-opacity="0.06"/>
<path d="M-236 715L1676 715" stroke="black" stroke-opacity="0.06"/>
<path d="M-236 660L1676 660" stroke="black" stroke-opacity="0.06"/>
<path d="M-236 605L1676 605" stroke="black" stroke-opacity="0.06"/>
<path d="M-236 550L1676 550" stroke="black" stroke-opacity="0.06"/>
<path d="M-236 495L1676 495" stroke="black" stroke-opacity="0.06"/>
<path d="M-236 440L1676 440" stroke="black" stroke-opacity="0.06"/>
<path d="M-236 385L1676 385" stroke="black" stroke-opacity="0.06"/>
<path d="M-236 330L1676 330" stroke="black" stroke-opacity="0.06"/>
<path d="M-236 275L1676 275" stroke="black" stroke-opacity="0.06"/>
<path d="M-236 220L1676 220" stroke="black" stroke-opacity="0.06"/>
<path d="M-236 165L1676 165" stroke="black" stroke-opacity="0.06"/>
<path d="M-236 110L1676 110" stroke="black" stroke-opacity="0.06"/>
<path d="M-236 55L1676 54.9999" stroke="black" stroke-opacity="0.06"/>
<path d="M77 0V1113" stroke="black" stroke-opacity="0.06"/>
<path d="M132 0V1113" stroke="black" stroke-opacity="0.06"/>
<path d="M187 0V1113" stroke="black" stroke-opacity="0.06"/>
<path d="M242 0V1113" stroke="black" stroke-opacity="0.06"/>
<path d="M297 0V1113" stroke="black" stroke-opacity="0.06"/>
<path d="M352 0V1113" stroke="black" stroke-opacity="0.06"/>
<path d="M407 0V1113" stroke="black" stroke-opacity="0.06"/>
<path d="M462 0V1113" stroke="black" stroke-opacity="0.06"/>
<path d="M517 0V1113" stroke="black" stroke-opacity="0.06"/>
<path d="M572 0V1113" stroke="black" stroke-opacity="0.06"/>
<path d="M627 0V1113" stroke="black" stroke-opacity="0.06"/>
<path d="M682 0V1113" stroke="black" stroke-opacity="0.06"/>
<path d="M737 0V1113" stroke="black" stroke-opacity="0.06"/>
<path d="M792 0V1113" stroke="black" stroke-opacity="0.06"/>
<path d="M847 0V1113" stroke="black" stroke-opacity="0.06"/>
<path d="M902 0V1113" stroke="black" stroke-opacity="0.06"/>
<path d="M957 0V1113" stroke="black" stroke-opacity="0.06"/>
<path d="M1012 0V1113" stroke="black" stroke-opacity="0.06"/>
<path d="M1067 0V1113" stroke="black" stroke-opacity="0.06"/>
<path d="M1122 0V1113" stroke="black" stroke-opacity="0.06"/>
<path d="M1177 0V1113" stroke="black" stroke-opacity="0.06"/>
<path d="M1232 0V1113" stroke="black" stroke-opacity="0.06"/>
<path d="M1287 0V1113" stroke="black" stroke-opacity="0.06"/>
</svg>
