<svg width="240" height="137" viewBox="0 0 240 137" fill="none" xmlns="http://www.w3.org/2000/svg">
<path d="M215.782 43.8023C218.719 43.8023 221.572 44.1799 224.341 44.9351C227.194 45.6903 229.711 46.9071 231.893 48.5853C234.158 50.1796 235.962 52.2355 237.305 54.7528C238.731 57.1862 239.445 60.1651 239.445 63.6894C239.445 67.0459 238.773 70.1926 237.431 73.1295C236.172 76.0664 234.41 78.6676 232.144 80.9333C229.963 83.115 227.361 84.8771 224.341 86.2197C221.32 87.4784 218.047 88.1077 214.523 88.1077H178.147V0.000427246H207.852C211.376 0.000427246 214.649 0.67172 217.67 2.0143C220.69 3.27298 223.292 5.03513 225.473 7.30075C227.739 9.48245 229.501 12.0837 230.76 15.1045C232.019 18.1254 232.648 21.356 232.648 24.7963C232.648 30.1667 231.137 34.5301 228.117 37.8866C225.18 41.1591 221.068 42.7954 215.782 42.7954H215.656V43.8023H215.782ZM207.852 38.2642C209.698 38.2642 211.418 37.9285 213.013 37.2572C214.607 36.502 215.991 35.537 217.166 34.3623C218.341 33.1875 219.264 31.803 219.935 30.2086C220.607 28.6143 220.942 26.8941 220.942 25.0481C220.942 23.2859 220.607 21.6077 219.935 20.0134C219.264 18.3351 218.341 16.9086 217.166 15.7339C215.991 14.5591 214.607 13.6361 213.013 12.9648C211.418 12.2096 209.698 11.832 207.852 11.832H190.105V38.2642H207.852ZM215.278 76.1503C217.04 76.1503 218.719 75.8147 220.313 75.1434C221.907 74.4721 223.292 73.549 224.466 72.3743C225.641 71.1156 226.564 69.6891 227.236 68.0948C227.907 66.5004 228.243 64.8222 228.243 63.0601C228.243 61.214 227.907 59.4938 227.236 57.8995C226.564 56.3052 225.599 54.9206 224.341 53.7459C223.166 52.4872 221.781 51.5222 220.187 50.8509C218.593 50.1796 216.872 49.844 215.026 49.844H190.105V76.1503H215.278Z" fill="#EE5F19"/>
<path d="M155.759 0.126717H168.094L144.305 88.234H119.761L96.2239 0.126717H108.559L128.949 76.4024H135.117L155.759 0.126717Z" fill="#EE5F19"/>
<path d="M89.9599 0.252106V88.2335H78.0025V12.0837H76.4921L56.3533 88.2335H36.3403L16.5791 12.0837H15.0687V88.2335H3.11131V0.252106H26.0192L45.6545 76.2761H47.0391L67.1779 0.252106H89.9599Z" fill="#EE5F19"/>
<path d="M218.858 114.634C218.941 115.428 219.422 116.055 220.299 116.514C221.177 116.974 222.263 117.392 223.559 117.768C224.896 118.102 226.316 118.478 227.821 118.896C229.325 119.272 230.725 119.815 232.02 120.526C233.315 121.236 234.381 122.176 235.216 123.346C236.094 124.474 236.533 125.958 236.533 127.796C236.533 128.924 236.303 130.032 235.843 131.118C235.425 132.204 234.736 133.186 233.775 134.064C232.814 134.899 231.56 135.589 230.014 136.132C228.51 136.675 226.692 136.947 224.561 136.947C222.848 136.947 221.24 136.696 219.735 136.195C218.273 135.651 216.978 134.92 215.849 134.001C214.721 133.04 213.802 131.933 213.092 130.679C212.423 129.384 212.026 127.984 211.901 126.48H218.356C218.482 127.107 218.67 127.733 218.921 128.36C219.213 128.987 219.61 129.551 220.111 130.052C220.655 130.554 221.323 130.951 222.117 131.243C222.911 131.536 223.872 131.682 225 131.682C226.379 131.682 227.445 131.536 228.197 131.243C228.991 130.909 229.576 130.533 229.952 130.115C230.328 129.697 230.557 129.321 230.641 128.987C230.725 128.611 230.766 128.381 230.766 128.297C230.766 128.172 230.766 128.047 230.766 127.921C230.766 126.751 230.369 125.853 229.576 125.226C228.782 124.558 227.716 124.035 226.379 123.659C225.084 123.242 223.663 122.907 222.117 122.657C220.571 122.364 219.129 121.925 217.792 121.34C216.455 120.755 215.327 119.92 214.408 118.833C213.53 117.747 213.092 116.243 213.092 114.321C213.092 113.192 213.28 112.106 213.656 111.061C214.074 110.017 214.7 109.077 215.536 108.241C216.414 107.405 217.521 106.737 218.858 106.235C220.195 105.734 221.804 105.483 223.684 105.483C225.23 105.483 226.713 105.671 228.134 106.047C229.555 106.423 230.808 107.008 231.895 107.802C232.981 108.554 233.838 109.536 234.464 110.748C235.133 111.918 235.467 113.297 235.467 114.885H229.2C229.116 114.383 228.97 113.903 228.761 113.443C228.552 112.942 228.238 112.503 227.821 112.127C227.445 111.751 226.922 111.437 226.254 111.187C225.627 110.936 224.833 110.79 223.872 110.748C223.747 110.748 223.6 110.748 223.433 110.748C222.556 110.748 221.804 110.873 221.177 111.124C220.55 111.375 220.049 111.709 219.673 112.127C219.338 112.545 219.109 112.963 218.983 113.38C218.9 113.757 218.858 114.091 218.858 114.383C218.858 114.467 218.858 114.55 218.858 114.634Z" fill="black"/>
<path d="M193.762 105.734C196.478 105.734 198.776 106.194 200.657 107.113C202.579 108.032 204.104 109.327 205.232 110.999C206.402 112.628 207.175 114.404 207.551 116.326C207.927 118.207 208.115 119.982 208.115 121.654C208.115 122.489 208.073 123.325 207.99 124.161H184.987C184.987 125.623 185.217 126.814 185.677 127.733C186.137 128.653 186.763 129.363 187.557 129.864C188.351 130.366 189.249 130.721 190.252 130.93C191.255 131.097 192.321 131.181 193.449 131.181C194.243 131.181 195.057 131.16 195.893 131.118C196.729 131.034 197.502 130.888 198.212 130.679C198.923 130.428 199.549 130.073 200.092 129.614C200.677 129.154 201.074 128.527 201.283 127.733H207.3C206.882 129.405 206.235 130.825 205.357 131.995C204.522 133.124 203.498 134.043 202.286 134.753C201.116 135.463 199.779 135.986 198.275 136.32C196.812 136.654 195.246 136.821 193.574 136.821C188.518 136.821 184.82 135.505 182.48 132.873C180.182 130.24 179.033 126.375 179.033 121.278C179.033 119.021 179.326 116.953 179.911 115.073C180.537 113.151 181.457 111.5 182.668 110.121C183.88 108.742 185.405 107.677 187.244 106.925C189.082 106.131 191.255 105.734 193.762 105.734ZM202.161 118.645C202.119 118.144 202.015 117.475 201.847 116.64C201.68 115.762 201.304 114.927 200.719 114.133C200.176 113.297 199.361 112.587 198.275 112.002C197.188 111.417 195.705 111.124 193.825 111.124C192.112 111.124 190.691 111.375 189.563 111.876C188.435 112.378 187.515 113.004 186.805 113.757C186.137 114.509 185.656 115.323 185.364 116.201C185.113 117.078 184.987 117.893 184.987 118.645H202.161Z" fill="black"/>
<path d="M178.052 105.546V111.438H164.389V136.634H158.497V105.546H178.052Z" fill="black"/>
<path d="M146.345 105.546H152.237V136.634H126.79V105.546H132.682V130.742H146.345V105.546Z" fill="black"/>
<path d="M108.537 130.742H121.386V136.634H102.646V111.438H97.381V105.547H102.646V92.7606H108.537V105.547H119.004V111.438H108.537V130.742Z" fill="black"/>
<path d="M65.2155 136.633V105.546H71.3578V109.056H71.4831C72.1099 108.095 73.2172 107.259 74.805 106.549C76.4346 105.838 78.2522 105.483 80.2578 105.483C81.971 105.483 83.6841 105.65 85.3973 105.985C87.1104 106.319 88.6774 107.029 90.098 108.116C91.5187 109.202 92.6678 110.769 93.5452 112.816C94.4227 114.864 94.8614 117.622 94.8614 121.09V136.633H88.5938V121.528C88.5938 119.481 88.4266 117.81 88.0924 116.514C87.7581 115.177 87.2358 114.133 86.5255 113.38C85.8569 112.628 84.9794 112.106 83.8931 111.814C82.8484 111.521 81.6158 111.375 80.1951 111.375C78.7327 111.375 77.4374 111.521 76.3092 111.814C75.181 112.106 74.2409 112.628 73.4888 113.38C72.7367 114.133 72.1517 115.135 71.7338 116.389C71.3578 117.601 71.1697 119.147 71.1697 121.027V136.633H65.2155Z" fill="black"/>
<path d="M45.8229 105.734C48.5388 105.734 50.837 106.194 52.7173 107.113C54.6393 108.032 56.1645 109.327 57.2926 110.999C58.4626 112.628 59.2356 114.404 59.6117 116.326C59.9877 118.207 60.1758 119.982 60.1758 121.654C60.1758 122.489 60.134 123.325 60.0504 124.161H37.0482C37.0482 125.623 37.278 126.814 37.7376 127.733C38.1972 128.653 38.824 129.363 39.6179 129.864C40.4118 130.366 41.3102 130.721 42.313 130.93C43.3158 131.097 44.3813 131.181 45.5095 131.181C46.3034 131.181 47.1182 131.16 47.9539 131.118C48.7895 131.034 49.5626 130.888 50.2729 130.679C50.9832 130.428 51.61 130.073 52.1532 129.614C52.7382 129.154 53.1351 128.527 53.344 127.733H59.361C58.9431 129.405 58.2955 130.825 57.418 131.995C56.5823 133.124 55.5586 134.043 54.3469 134.753C53.1769 135.463 51.8398 135.986 50.3356 136.32C48.8731 136.654 47.3062 136.821 45.6348 136.821C40.5789 136.821 36.881 135.505 34.5411 132.873C32.243 130.24 31.0939 126.375 31.0939 121.278C31.0939 119.021 31.3864 116.953 31.9714 115.073C32.5981 113.151 33.5174 111.5 34.7291 110.121C35.9409 108.742 37.466 107.677 39.3045 106.925C41.143 106.131 43.3158 105.734 45.8229 105.734ZM54.2215 118.645C54.1797 118.144 54.0753 117.475 53.9081 116.64C53.741 115.762 53.3649 114.927 52.7799 114.133C52.2367 113.297 51.422 112.587 50.3356 112.002C49.2492 111.417 47.7658 111.124 45.8855 111.124C44.1724 111.124 42.7517 111.375 41.6235 111.876C40.4954 112.378 39.5761 113.004 38.8658 113.757C38.1972 114.509 37.7167 115.323 37.4242 116.201C37.1735 117.078 37.0482 117.893 37.0482 118.645H54.2215Z" fill="black"/>
<path d="M23.0022 105.546H29.1445L20.6832 136.634H8.46132L0 105.546H6.14229L13.0994 130.742H16.1078L23.0022 105.546Z" fill="black"/>
</svg>
